<svg xmlns="http://www.w3.org/2000/svg" viewBox="0 0 455.77 116.75">
  <title>Musicnotes-Logo</title>
  <g>
    <g>
      <path d="M8.63,36.16c.19.53,2.2,3.44,2.46,3.9a31.07,31.07,0,0,0-6.8,19.46A31.69,31.69,0,0,0,35.81,91.09c18.39,0,31.53-15.34,31.53-31.58,0-9.81-5.13-22.91-19.85-29.29l4.9-2.44c6,3,19.29,12.95,19.28,31.69A35.87,35.87,0,0,1,35.83,95.4C14.64,95.4,0,77.83,0,59.51A36,36,0,0,1,8.63,36.16Z" style="fill: #fff"/>
      <path d="M54.57,60.86c-.64-3.38-3.19-7.55-8.33-10.23C39,46.85,30.26,43,24.77,38.25L47.24,26s-3.11-10.69-3.8-14.62c-1-5.88-.26-7.07,1.59-8L44.28,0S19.91,9.17,14.67,15.72c-7.77,9.71-2.38,20.49,2.77,25.49,4.24,4.12,10.59,8.45,17.7,12.15C26.28,58.21,21.2,67.73,21.86,75.89c.39,4.75,2.82,8,6,9.56,4,2,8.46,1.85,13.5-.68C50.23,80.32,56.08,68.9,54.57,60.86Zm-18,20L33.22,61.37c1.46-1.8,6.09-4.46,8.07-4.37l3.1,19.47A21.67,21.67,0,0,1,36.53,80.84Z" style="fill: #fff"/>
      <path d="M153.09,51a16.39,16.39,0,0,1,4.1,11V78h-6.35V62a10.09,10.09,0,0,0-2.35-6.75,8.55,8.55,0,0,0-12.78,0A9.91,9.91,0,0,0,133.63,62V78h-6.35V62a9.72,9.72,0,0,0-2.11-6.72,8.51,8.51,0,0,0-12.77,0A10,10,0,0,0,110.05,62V78H103.7V62a15.52,15.52,0,0,1,3.89-10.78A14.9,14.9,0,0,1,118.78,46q7.29,0,11.66,6.39Q134.81,46,142.1,46A14.23,14.23,0,0,1,153.09,51Z" style="fill: #fff"/>
      <path d="M195.81,46.29V62.42a15.92,15.92,0,1,1-31.84,0V46.29h6.35V62.42a9.57,9.57,0,1,0,19.13,0V46.29Z" style="fill: #fff"/>
      <path d="M226.68,61.17q5.1,2.76,5.1,7.44t-5.1,7.45a19.84,19.84,0,0,1-18.43,0q-5.13-2.75-5.12-7.43h6.35c0,1.14,1.12,2,3.35,2.63a17.32,17.32,0,0,0,4.64.61c4.23,0,6.35-1.07,6.35-3.23s-2.12-3.19-6.35-3.19a19.05,19.05,0,0,1-9.22-2.27q-5.13-2.79-5.12-7.48t5.12-7.44a19.88,19.88,0,0,1,18.43,0q5.1,2.76,5.1,7.44h-6.36c0-1.13-1.12-2-3.34-2.6a17.31,17.31,0,0,0-4.61-.61q-6.39,0-6.39,3.19t6.39,3.23A19,19,0,0,1,226.68,61.17Z" style="fill: #fff"/>
      <path d="M245.45,35.1v6.36h-6.36V35.1Zm0,11.15V78h-6.36V46.25Z" style="fill: #fff"/>
      <path d="M276.08,68.32l4.52,4.59a16,16,0,0,1-23.25.78,15.71,15.71,0,0,1-4.58-11.52,15.75,15.75,0,0,1,4.58-11.53A15.29,15.29,0,0,1,268.7,46a15.13,15.13,0,0,1,12.17,5.78l-4.54,4.59a9,9,0,0,0-7.63-3.88,9.22,9.22,0,0,0-6.83,2.76,10.11,10.11,0,0,0,0,13.86,9.19,9.19,0,0,0,6.83,2.77A9,9,0,0,0,276.08,68.32Z" style="fill: #fff"/>
      <path d="M314.4,50.56A15.64,15.64,0,0,1,319,62V78h-6.36V62a9.43,9.43,0,0,0-2.73-6.9,9.15,9.15,0,0,0-6.82-2.77,9.25,9.25,0,0,0-6.85,2.75A9.45,9.45,0,0,0,293.48,62V78h-6.36V62a15.65,15.65,0,0,1,4.58-11.46,16.23,16.23,0,0,1,22.7,0Z" style="fill: #fff"/>
      <path d="M353.3,50.59a15.84,15.84,0,0,1,4.56,11.54,15.75,15.75,0,0,1-4.58,11.5,16.14,16.14,0,0,1-22.67,0A15.72,15.72,0,0,1,326,62.13a15.77,15.77,0,0,1,4.58-11.54,16.2,16.2,0,0,1,22.7,0ZM335.1,55.2a10.15,10.15,0,0,0,0,13.86,9.82,9.82,0,0,0,13.67,0,10.18,10.18,0,0,0,0-13.85,9.82,9.82,0,0,0-13.68,0Z" style="fill: #fff"/>
      <path d="M381,46.19v6.39H371.4V78H365V30.58h6.36V46.19Z" style="fill: #fff"/>
      <path d="M392.43,69.7a9.24,9.24,0,0,0,5.51,1.77h14.31V78s-10.05,0-14.4,0a15.32,15.32,0,0,1-11.3-4.76A14.86,14.86,0,0,1,382,62.17a15.79,15.79,0,0,1,4.58-11.53,16.15,16.15,0,0,1,21.48-1.07A15.78,15.78,0,0,1,413.51,59l-4,6.5H388.93A8.53,8.53,0,0,0,392.43,69.7Zm0-15.46a9.52,9.52,0,0,0-3.5,4.66h18a9.43,9.43,0,0,0-3.47-4.67,9.53,9.53,0,0,0-11,0Z" style="fill: #fff"/>
      <path d="M442.92,61.17Q448,63.93,448,68.61t-5.09,7.45a19.86,19.86,0,0,1-18.44,0q-5.12-2.75-5.12-7.43h6.35c0,1.14,1.12,2,3.35,2.63a17.37,17.37,0,0,0,4.64.61c4.24,0,6.36-1.07,6.36-3.23s-2.12-3.19-6.36-3.19a19.05,19.05,0,0,1-9.22-2.27q-5.12-2.79-5.12-7.48t5.12-7.44a19.9,19.9,0,0,1,18.44,0Q448,51,448,55.69h-6.36c0-1.13-1.11-2-3.34-2.6a17.26,17.26,0,0,0-4.61-.61q-6.39,0-6.39,3.19t6.39,3.23A19.08,19.08,0,0,1,442.92,61.17Z" style="fill: #fff"/>
    </g>
    <g>
      <path d="M104.24,108.46a6.22,6.22,0,0,0,4.65,2.1c2.63,0,3.47-1.41,3.47-2.54,0-1.77-1.79-2.26-3.74-2.78-2.37-.63-5-1.29-5-4.19,0-2.43,2.17-4.09,5.07-4.09A6.93,6.93,0,0,1,113.93,99l-1.11,1.35a5.62,5.62,0,0,0-4.27-1.77c-1.77,0-3,1-3,2.34s1.71,1.93,3.59,2.44c2.41.64,5.15,1.39,5.15,4.49,0,2.14-1.46,4.33-5.44,4.33a7.29,7.29,0,0,1-5.66-2.34Z" style="fill: #fff"/>
      <path d="M132.2,105.17h-8.62v6.77h-1.84V97.18h1.84v6.35h8.62V97.18H134v14.76H132.2Z" style="fill: #fff"/>
      <path d="M142.23,97.18h9.66v1.64h-7.83v4.76h7.68v1.63h-7.68v5.09h7.83v1.64h-9.66Z" style="fill: #fff"/>
      <path d="M159.55,97.18h9.67v1.64h-7.83v4.76h7.67v1.63h-7.67v5.09h7.83v1.64h-9.67Z" style="fill: #fff"/>
      <path d="M180.52,98.82h-4.66V97.18h11.19v1.64h-4.69v13.12h-1.84Z" style="fill: #fff"/>
      <path d="M214,99.66l-5,12.28h-.75l-5-12.28v12.28h-1.84V97.18H204l4.58,11.24,4.6-11.24h2.63v14.76H214Z" style="fill: #fff"/>
      <path d="M224,97.18h1.84v9c0,2.7,1.46,4.4,4.18,4.4s4.18-1.7,4.18-4.4v-9H236v9c0,3.67-2,6-6,6s-6-2.36-6-6Z" style="fill: #fff"/>
      <path d="M244.4,108.46a6.2,6.2,0,0,0,4.64,2.1c2.63,0,3.47-1.41,3.47-2.54,0-1.77-1.79-2.26-3.74-2.78-2.36-.63-5-1.29-5-4.19,0-2.43,2.16-4.09,5.06-4.09A6.91,6.91,0,0,1,254.08,99l-1.1,1.35a5.65,5.65,0,0,0-4.27-1.77c-1.77,0-3,1-3,2.34s1.7,1.93,3.58,2.44c2.41.64,5.15,1.39,5.15,4.49,0,2.14-1.46,4.33-5.44,4.33a7.32,7.32,0,0,1-5.66-2.34Z" style="fill: #fff"/>
      <path d="M261.89,97.18h1.84v14.76h-1.84Z" style="fill: #fff"/>
      <path d="M271.32,104.57a7.37,7.37,0,0,1,7.52-7.63,6.62,6.62,0,0,1,5.66,2.92l-1.55.86a5,5,0,0,0-4.11-2.14,6,6,0,0,0,0,12,4.94,4.94,0,0,0,4.11-2.14l1.57.86a6.7,6.7,0,0,1-5.68,2.92A7.37,7.37,0,0,1,271.32,104.57Z" style="fill: #fff"/>
      <path d="M307.58,108.66H300.1l-1.3,3.28h-2l5.93-14.76H305l5.95,14.76h-2ZM300.63,107H307l-3.18-8.21Z" style="fill: #fff"/>
      <path d="M319.42,100v11.9h-1.84V97.18h1.88L328,108.84V97.18h1.84v14.76H328Z" style="fill: #fff"/>
      <path d="M342.27,105.7l-5.82-8.52h2.15l4.58,6.86,4.57-6.86h2.15l-5.8,8.52v6.24h-1.83Z" style="fill: #fff"/>
      <path d="M364.59,100l-3.25,11.9h-2l-4.2-14.76h2l3.28,12.3,3.38-12.3h1.53l3.38,12.3L372,97.18h2l-4.21,14.76h-2Z" style="fill: #fff"/>
      <path d="M391.29,105.17h-8.62v6.77h-1.84V97.18h1.84v6.35h8.62V97.18h1.84v14.76h-1.84Z" style="fill: #fff"/>
      <path d="M401.32,97.18H411v1.64h-7.83v4.76h7.68v1.63h-7.68v5.09H411v1.64h-9.66Z" style="fill: #fff"/>
      <path d="M423.42,106.08h-2.94v5.86h-1.84V97.18h5.93a4.3,4.3,0,0,1,4.62,4.45,4.08,4.08,0,0,1-3.82,4.29l4,6h-2.17Zm.93-7.26h-3.87v5.64h3.87a2.82,2.82,0,1,0,0-5.64Z" style="fill: #fff"/>
      <path d="M436.83,97.18h9.66v1.64h-7.83v4.76h7.68v1.63h-7.68v5.09h7.83v1.64h-9.66Z" style="fill: #fff"/>
    </g>
  </g>
</svg>
